name C:\Users\u0150099\Documents\master_thesis\3dpredictsim\Results\debug\Fal_s1_mtjc2_sc_cspx10_oy2_ATx70_STm5_MTc2_MTPm_k1_d01_MTJm_nl_MG_exp5_table_d01_PF_Natali2010_x3_ls146_ig21.mot
datacolumns 128
datarows 4
range 1.04705147 1.07846301
endheader
time	pelvis_tilt	pelvis_list	pelvis_rotation	pelvis_tx	pelvis_ty	pelvis_tz	hip_flexion_l	hip_adduction_l	hip_rotation_l	hip_flexion_r	hip_adduction_r	hip_rotation_r	knee_angle_l	knee_angle_r	ankle_angle_l	ankle_angle_r	subtalar_angle_l	subtalar_angle_r	mtj_angle_l	mtj_angle_r	mtp_angle_l	mtp_angle_r	lumbar_extension	lumbar_bending	lumbar_rotation	arm_flex_l	arm_add_l	arm_rot_l	arm_flex_r	arm_add_r	arm_rot_r	elbow_flex_l	elbow_flex_r	pro_sup_l	pro_sup_r	glut_med1_l/activation	glut_med2_l/activation	glut_med3_l/activation	glut_min1_l/activation	glut_min2_l/activation	glut_min3_l/activation	semimem_l/activation	semiten_l/activation	bifemlh_l/activation	bifemsh_l/activation	sar_l/activation	add_long_l/activation	add_brev_l/activation	add_mag1_l/activation	add_mag2_l/activation	add_mag3_l/activation	tfl_l/activation	pect_l/activation	grac_l/activation	glut_max1_l/activation	glut_max2_l/activation	glut_max3_l/activation	iliacus_l/activation	psoas_l/activation	quad_fem_l/activation	gem_l/activation	peri_l/activation	rect_fem_l/activation	vas_med_l/activation	vas_int_l/activation	vas_lat_l/activation	med_gas_l/activation	lat_gas_l/activation	soleus_l/activation	tib_post_l/activation	flex_dig_l/activation	flex_hal_l/activation	tib_ant_l/activation	per_brev_l/activation	per_long_l/activation	per_tert_l/activation	ext_dig_l/activation	ext_hal_l/activation	ercspn_l/activation	intobl_l/activation	extobl_l/activation	glut_med1_r/activation	glut_med2_r/activation	glut_med3_r/activation	glut_min1_r/activation	glut_min2_r/activation	glut_min3_r/activation	semimem_r/activation	semiten_r/activation	bifemlh_r/activation	bifemsh_r/activation	sar_r/activation	add_long_r/activation	add_brev_r/activation	add_mag1_r/activation	add_mag2_r/activation	add_mag3_r/activation	tfl_r/activation	pect_r/activation	grac_r/activation	glut_max1_r/activation	glut_max2_r/activation	glut_max3_r/activation	iliacus_r/activation	psoas_r/activation	quad_fem_r/activation	gem_r/activation	peri_r/activation	rect_fem_r/activation	vas_med_r/activation	vas_int_r/activation	vas_lat_r/activation	med_gas_r/activation	lat_gas_r/activation	soleus_r/activation	tib_post_r/activation	flex_dig_r/activation	flex_hal_r/activation	tib_ant_r/activation	per_brev_r/activation	per_long_r/activation	per_tert_r/activation	ext_dig_r/activation	ext_hal_r/activation	ercspn_r/activation	intobl_r/activation	extobl_r/activation	
          1.04705147	         -2.92650925	         -1.53612753	          2.23662174	          1.39257845	          0.91160789	         -0.00217337	        -14.62298060	          2.04744248	          9.55302790	         28.94420014	          3.32791734	         -1.27676425	        -12.83393742	        -11.86952610	          6.70247245	          9.21808455	          0.20593663	         -0.86947804	         -1.43173759	          2.14104340	         17.15165672	         -5.36502353	         -3.96453321	          0.68001650	         -1.93047656	          4.67138475	        -13.71027373	         19.38594123	         -5.34365824	        -13.48300191	          4.18609845	         32.56414915	         27.92344938	         86.51662706	         86.51662706	          0.36520797	          0.06053123	          0.05001468	          0.51948731	          0.20319075	          0.08113742	          0.05021069	          0.05002526	          0.05001705	          0.06912948	          0.09942602	          0.05003253	          0.05003886	          0.05006940	          0.05020736	          0.05013101	          0.54376884	          0.05013033	          0.05006535	          0.05032532	          0.05017348	          0.05012331	          0.37849563	          0.76074690	          0.05001733	          0.05006604	          0.05001257	          0.37717115	          0.14159208	          0.15229479	          0.12483119	          0.37086633	          0.45704778	          0.30965031	          0.39149881	          0.29833796	          0.45752490	          0.05000196	          0.05759180	          0.22029265	          0.05000825	          0.05000857	          0.09639019	          0.05000314	          0.05000938	          0.05000423	          0.05011342	          0.05857760	          0.05024730	          0.05771838	          0.05085794	          0.05031982	          0.33531174	          0.08078839	          0.21007518	          0.05005225	          0.05005875	          0.09119244	          0.14322247	          0.14311024	          0.14020731	          0.15295148	          0.05008521	          0.05047183	          0.08074626	          0.07406312	          0.07989498	          0.11730440	          0.05002718	          0.05003781	          0.12774720	          0.05036809	          0.05049112	          0.05003643	          0.05657126	          0.05694327	          0.05101053	          0.06369935	          0.05002276	          0.05003593	          0.05001828	          0.09441603	          0.05018279	          0.31610257	          0.07808208	          0.12707625	          0.34110707	          0.58538854	          0.31221183	          0.06728851	          0.08950911	          0.12621424	
          1.05752198	         -2.92935610	         -1.61792717	          2.52458610	          1.40879715	          0.91105535	         -0.00198014	        -14.93820266	          1.72714814	          9.41882117	         28.52550279	          3.61231923	         -1.22501974	        -13.85006057	        -11.53483403	          5.84843493	          8.98508577	          0.98306972	         -0.94319843	         -2.47279239	          2.37445443	         19.82599685	         -6.00208089	         -3.80229838	          0.85875687	         -2.03120672	          4.36965811	        -13.66058246	         19.33514183	         -6.01231937	        -13.45677305	          3.69238031	         33.72586532	         27.46038289	         86.51662706	         86.51662706	          0.32236697	          0.05154032	          0.05000296	          0.46571452	          0.17300761	          0.06908603	          0.05010394	          0.05001430	          0.05001023	          0.05886228	          0.08469449	          0.05054620	          0.05002890	          0.05002959	          0.05008218	          0.05003858	          0.47956882	          0.08192425	          0.05002483	          0.05006042	          0.05003476	          0.05002779	          0.32226410	          0.78106971	          0.05000408	          0.05001502	          0.05000458	          0.32116590	          0.14615851	          0.15309069	          0.13097274	          0.32049251	          0.38923321	          0.26574531	          0.35072225	          0.25433743	          0.40063529	          0.05000109	          0.05877839	          0.18756330	          0.05000778	          0.05000336	          0.08207005	          0.05000272	          0.05000148	          0.05000311	          0.12610914	          0.05003958	          0.05874679	          0.05001852	          0.05002549	          0.05014568	          0.32573600	          0.06885315	          0.19701192	          0.05005589	          0.05006999	          0.09042108	          0.14033793	          0.17463897	          0.14773069	          0.17677666	          0.05005963	          0.05156826	          0.06900500	          0.06369398	          0.07573981	          0.14168635	          0.05001517	          0.05001490	          0.28068055	          0.05121683	          0.05030934	          0.05000749	          0.06201815	          0.05027061	          0.05057718	          0.06495166	          0.05654124	          0.05002621	          0.05005567	          0.08040651	          0.06954085	          0.32694741	          0.06649499	          0.14689619	          0.37496961	          0.62173913	          0.42569258	          0.05873726	          0.08538357	          0.10746375	
          1.06799250	         -2.93016174	         -1.70092437	          2.80305616	          1.42528791	          0.91053638	         -0.00176350	        -15.16939725	          1.38981357	          9.24858297	         28.10946458	          3.89071697	         -1.14244206	        -14.97797501	        -11.83799950	          4.83426505	          8.40111489	          1.83031357	         -0.97855167	         -3.60280766	          2.59749269	         22.68331933	         -6.50123424	         -3.62655849	          1.04262136	         -2.12579421	          3.99743968	        -13.61778821	         19.25500924	         -6.69845926	        -13.44989345	          3.37375120	         34.90962868	         26.99823542	         86.51662706	         86.51662706	          0.27447379	          0.05001473	          0.05000969	          0.39652530	          0.14730755	          0.05883448	          0.05035554	          0.05002499	          0.05002370	          0.05012414	          0.07212728	          0.08962061	          0.07254012	          0.05014699	          0.05041399	          0.05680414	          0.47749140	          0.07006214	          0.05004185	          0.05011870	          0.05007430	          0.05008810	          0.27438384	          0.66504150	          0.05000783	          0.05006060	          0.05868382	          0.27345839	          0.17769135	          0.18105127	          0.17545377	          0.27287469	          0.33140396	          0.22626108	          0.29861717	          0.21656141	          0.34113059	          0.05000099	          0.05004734	          0.15969587	          0.05000515	          0.05000324	          0.06987731	          0.05000198	          0.06897482	          0.05001645	          0.10739153	          0.05029130	          0.05004274	          0.05871321	          0.05860595	          0.05008576	          0.28198742	          0.05863130	          0.16774342	          0.05871912	          0.05146764	          0.08078971	          0.11951640	          0.24746550	          0.12585962	          0.18682361	          0.05010183	          0.05036088	          0.05880022	          0.05425855	          0.06449705	          0.13624199	          0.06891641	          0.06896698	          0.57635624	          0.11209994	          0.05015259	          0.06899995	          0.10380736	          0.18799772	          0.13883696	          0.06900422	          0.07031886	          0.05000603	          0.05001197	          0.06898648	          0.06898341	          0.37384885	          0.14330674	          0.13360467	          0.37136022	          0.63948456	          0.36244680	          0.05001105	          0.07269827	          0.09149768	
          1.07846301	         -2.92980765	         -1.79776529	          3.07111059	          1.44201896	          0.91003588	         -0.00154636	        -15.32666442	          1.02779458	          9.04419004	         27.64795607	          4.12301719	         -1.00908330	        -16.18112666	        -12.63066157	          3.61385960	          7.50962501	          2.70651115	         -1.00439882	         -4.78926600	          2.65009461	         25.68430279	         -6.90833492	         -3.43825357	          1.24321402	         -2.21090239	          3.55927494	        -13.58295429	         19.16590910	         -7.39230052	        -13.46544259	          3.21761478	         36.11974196	         26.52487602	         86.51662706	         86.51662706	          0.23369722	          0.05006367	          0.05002876	          0.33761560	          0.12542577	          0.05011281	          0.05028573	          0.05018207	          0.05016982	          0.05005287	          0.06143651	          0.16642524	          0.15613346	          0.05859840	          0.05056879	          0.05026480	          0.40676032	          0.06885572	          0.05864418	          0.05066272	          0.05046609	          0.05036474	          0.23361756	          0.64281883	          0.05865536	          0.05014609	          0.05000745	          0.23283004	          0.15130095	          0.15415974	          0.14939369	          0.23233135	          0.28216520	          0.19264329	          0.25424995	          0.18438770	          0.29045169	          0.07188236	          0.05000369	          0.13596986	          0.05000411	          0.05000358	          0.05949601	          0.06027952	          0.05872722	          0.05080077	          0.26857422	          0.05000831	          0.30684904	          0.05001207	          0.05001012	          0.05001923	          0.24685006	          0.05000515	          0.16296953	          0.05000367	          0.05860531	          0.06911073	          0.26506198	          0.23547908	          0.23736983	          0.24474385	          0.05002693	          0.06023978	          0.05008730	          0.05002045	          0.05496481	          0.22916459	          0.05873743	          0.05873332	          0.49074184	          0.09546041	          0.11869642	          0.05874956	          0.13416996	          0.16015877	          0.11839659	          0.05875274	          0.05987336	          0.05872857	          0.05868528	          0.05873998	          0.05874133	          0.41337672	          0.12203252	          0.15053513	          0.41062352	          0.74751121	          0.30859818	          0.05000374	          0.06190079	          0.07790342	
